<svg xmlns="http://www.w3.org/2000/svg" width="73" height="128" viewBox="0 0 73 128">
    <g fill="none" fill-rule="evenodd">
        <g>
            <path fill="#FFF" d="M0 0H1440V893H0z" transform="translate(-1089 -232)"/>
            <g transform="translate(-1089 -232) translate(900 139)">
                <rect width="450" height="621" fill="#FFF" rx="12"/>
                <g>
                    <path fill="#20293C" d="M37.86 76.441l-.137.055c-.301.127-.576.268-.824.42-1.488.92-2.232 2.328-2.232 4.224 0 1.127.274 2.075.82 2.846.547.77 1.32 1.467 2.323 2.09 1.002.622 2.156 1.185 3.461 1.689 1.306.504 2.748 1.022 4.327 1.556 3.28 1.185 6.133 2.356 8.562 3.512 2.43 1.156 4.449 2.505 6.058 4.046 1.61 1.541 2.808 3.35 3.598 5.424.79 2.075 1.184 4.594 1.184 7.558 0 5.75-2.065 10.21-6.194 13.382-4.13 3.171-10.354 4.757-18.673 4.757-2.794 0-5.314-.163-7.56-.489-2.248-.326-4.236-.726-5.967-1.2-1.73-.475-3.219-.979-4.463-1.512-1.245-.534-2.293-1.037-3.143-1.512l4.008-11.025c1.882 1.007 4.205 1.911 6.968 2.712 2.763.8 6.149 1.2 10.157 1.2 2.004 0 3.658-.163 4.964-.49 1.306-.325 2.353-.77 3.143-1.333.789-.563 1.336-1.23 1.64-2 .303-.771.455-1.63.455-2.58 0-2.015-.972-3.69-2.915-5.023-1.943-1.334-5.283-2.771-10.02-4.312-2.065-.712-4.13-1.527-6.194-2.446-2.065-.919-3.917-2.074-5.556-3.467-1.64-1.394-2.976-3.083-4.008-5.069-1.033-1.986-1.549-4.401-1.549-7.247 0-2.845.547-5.409 1.64-7.69 1.093-2.283 2.641-4.225 4.645-5.825.845-.674 1.764-1.283 2.76-1.826.845 4.558 4.257 8.242 8.721 9.575zm16.483-11.395c3.097.89 5.647 1.868 7.651 2.935l-4.099 10.936c-1.761-.889-3.72-1.674-5.875-2.356-1.408-.445-3.003-.745-4.785-.9 4.02-1.977 6.808-5.996 6.938-10.662l.17.047z" transform="translate(189 93)"/>
                    <g transform="translate(189 93)">
                        <path stroke="#E4E4E4" stroke-linecap="square" stroke-width="3" d="M7.935 23.478L7.935 40.696M14.283 51.652L33.326 57.913M46.022 54.783L55.543 45.391M61.891 26.609L49.196 10.957M36.5 7.826L20.63 10.957"/>
                        <ellipse cx="41.261" cy="62.609" stroke="#1F8EFA" stroke-width="3.25" rx="7.897" ry="7.766"/>
                        <ellipse cx="61.891" cy="36" stroke="#1F8EFA" stroke-width="3.25" rx="9.484" ry="9.332"/>
                        <ellipse cx="7.935" cy="48.522" stroke="#1F8EFA" stroke-width="3.25" rx="6.31" ry="6.201"/>
                        <ellipse cx="12.696" cy="15.652" stroke="#1F8EFA" stroke-width="3.25" rx="7.897" ry="7.766"/>
                        <ellipse cx="42.848" cy="7.826" stroke="#1F8EFA" stroke-width="3.25" rx="6.31" ry="6.201"/>
                    </g>
                </g>
            </g>
        </g>
    </g>
</svg>
